<?xml version="1.0" standalone="no"?>
<!DOCTYPE svg PUBLIC "-//W3C//DTD SVG 20010904//EN"
 "http://www.w3.org/TR/2001/REC-SVG-20010904/DTD/svg10.dtd">
<svg version="1.0" xmlns="http://www.w3.org/2000/svg"
 width="1280.000000pt" height="1280.000000pt" viewBox="0 0 1280.000000 1280.000000"
 preserveAspectRatio="xMidYMid meet">

<g transform="translate(0.000000,1280.000000) scale(0.100000,-0.100000)"
fill="#000000" stroke="none">
<path d="M0 6400 l0 -6400 6400 0 6400 0 0 6400 0 6400 -6400 0 -6400 0 0
-6400z m3787 5530 c54 -5 133 -16 176 -25 44 -8 132 -15 198 -15 97 0 127 -4
157 -19 59 -29 155 -41 345 -41 l176 0 33 -67 c44 -91 159 -207 245 -248 56
-27 66 -36 90 -85 20 -39 64 -91 155 -180 104 -103 131 -135 148 -179 11 -30
36 -77 54 -105 31 -48 33 -55 29 -121 -18 -292 209 -559 504 -591 35 -3 63
-10 63 -14 0 -4 -14 -38 -31 -75 -17 -38 -37 -98 -45 -134 -16 -75 -19 -369
-4 -441 8 -40 7 -47 -12 -60 -12 -8 -61 -59 -109 -113 -95 -108 -164 -231
-234 -422 -20 -55 -43 -110 -51 -122 -27 -43 -132 -320 -143 -377 -28 -149
-23 -469 10 -660 11 -61 76 -237 106 -284 90 -142 373 -438 482 -504 44 -26
215 -187 207 -195 -1 -1 -34 3 -73 9 -53 8 -98 8 -170 0 -266 -31 -507 -47
-798 -53 -176 -4 -370 -11 -432 -14 l-112 -7 -7 28 c-13 56 -65 157 -100 198
-36 41 -180 280 -236 391 -17 33 -54 89 -84 125 -29 36 -68 85 -86 109 -45 61
-184 197 -233 228 -51 33 -204 171 -315 284 -87 89 -136 121 -203 133 l-38 7
44 34 c219 167 287 463 165 713 -44 91 -159 206 -250 250 -75 37 -177 62 -254
62 -29 0 -100 -9 -159 -21 l-107 -21 -117 21 c-87 16 -158 21 -277 21 l-160 0
-109 117 c-61 64 -171 195 -245 291 l-136 174 11 52 c21 93 73 187 186 331 25
33 60 85 77 115 17 30 57 84 88 119 31 36 67 83 81 105 32 51 155 209 199 256
60 64 161 228 183 298 12 37 27 125 34 195 l12 129 120 49 c66 27 153 63 193
79 40 17 83 37 95 44 12 8 57 28 99 45 43 17 86 35 95 40 10 5 42 14 72 20 71
15 165 62 221 110 35 30 49 37 62 30 10 -5 61 -14 115 -19z m1823 -6265 c0 -3
-16 -44 -35 -92 -73 -180 -104 -348 -105 -554 0 -52 5 -122 11 -154 10 -56 81
-248 99 -270 5 -6 22 -49 38 -97 16 -47 47 -113 69 -145 l41 -60 -51 -12 c-93
-21 -177 -70 -257 -151 -163 -163 -209 -375 -131 -607 16 -48 32 -104 36 -123
88 -481 98 -516 186 -648 27 -41 49 -80 49 -86 0 -6 16 -36 36 -66 20 -30 63
-122 96 -205 33 -82 73 -170 90 -194 16 -24 39 -67 50 -95 11 -28 37 -77 59
-108 l39 -58 0 -131 0 -131 -50 -118 c-27 -65 -50 -124 -50 -130 0 -7 -16 -46
-36 -87 -20 -41 -41 -101 -47 -132 -10 -48 -21 -68 -67 -118 -54 -59 -56 -60
-120 -67 -190 -20 -366 -143 -449 -311 l-32 -65 -150 0 c-124 0 -156 3 -182
18 -27 14 -59 17 -212 17 -99 0 -225 -6 -280 -13 -119 -16 -286 -30 -485 -41
-80 -4 -201 -18 -270 -29 -198 -33 -285 -44 -440 -53 -80 -5 -215 -13 -300
-18 -93 -6 -171 -16 -195 -25 -29 -11 -80 -15 -190 -16 -101 0 -169 -5 -205
-15 -76 -20 -250 -40 -337 -37 -81 2 -251 2 -638 -1 l-260 -2 -70 35 c-50 25
-78 47 -100 78 -16 24 -53 69 -82 100 -28 32 -70 93 -94 137 -23 44 -59 98
-80 120 -53 56 -83 152 -99 317 -5 48 -18 113 -29 145 -32 90 -42 155 -51 318
-4 83 -18 202 -29 265 l-21 115 27 50 c46 87 62 103 107 111 99 16 182 84 236
194 29 57 33 77 39 180 5 70 13 125 22 140 16 29 19 290 5 420 -9 77 -8 86 44
375 18 101 40 175 84 279 13 32 19 37 38 32 53 -14 169 -18 232 -7 71 12 239
75 297 110 29 18 50 21 144 21 l110 -1 76 -62 c43 -34 100 -80 128 -102 66
-51 392 -369 426 -415 14 -19 107 -119 206 -222 184 -190 237 -256 270 -339
10 -26 31 -69 48 -95 16 -27 44 -85 61 -129 17 -44 65 -149 107 -232 65 -131
88 -167 163 -251 98 -111 170 -163 274 -201 133 -48 370 -29 511 40 100 49
171 121 278 282 108 161 111 168 168 362 35 120 41 158 46 266 3 77 1 152 -6
194 -15 83 -77 242 -129 327 -21 34 -54 92 -74 128 -47 83 -94 138 -178 205
-49 39 -78 72 -104 118 -36 65 -85 125 -184 229 l-55 56 66 114 c75 128 118
194 163 247 37 43 95 139 129 212 14 30 45 86 70 124 47 73 115 225 115 255 0
9 11 32 25 51 13 19 41 66 61 104 20 39 51 87 68 107 17 20 41 50 53 67 23 29
24 29 100 24 160 -10 309 45 427 159 39 38 81 69 95 71 39 6 541 8 541 2z
m3191 -1573 c94 -89 284 -242 351 -285 95 -60 370 -137 487 -137 107 0 374 62
476 110 33 16 80 34 105 40 25 7 68 23 95 36 28 13 66 25 85 26 l34 3 28 -90
c38 -121 121 -283 178 -347 26 -29 50 -64 54 -78 26 -90 113 -360 141 -435 40
-108 50 -174 35 -238 -5 -26 -15 -92 -20 -146 -9 -86 -19 -120 -85 -283 -63
-158 -77 -205 -95 -314 -28 -174 -45 -224 -107 -318 -29 -45 -53 -85 -53 -90
0 -5 -53 -63 -118 -130 -88 -91 -125 -137 -150 -188 -33 -67 -61 -175 -62
-233 l0 -31 -107 -16 c-60 -9 -155 -22 -213 -28 -58 -6 -135 -15 -172 -20 -37
-6 -240 -10 -452 -10 -212 0 -416 -4 -453 -10 -38 -5 -105 -14 -150 -19 -80
-10 -114 -18 -263 -66 -41 -13 -95 -27 -120 -30 -25 -4 -58 -14 -73 -22 -27
-14 -29 -13 -74 37 -68 76 -158 116 -279 127 -74 6 -128 0 -504 -57 -169 -26
-391 -50 -460 -50 -20 0 -22 4 -15 38 3 20 18 61 31 90 14 30 32 86 40 125 9
39 30 105 48 147 18 41 48 118 66 170 30 85 34 109 38 235 l4 140 43 46 c59
63 93 120 126 209 15 41 46 122 69 180 68 167 71 184 79 351 l6 156 77 88
c121 139 168 258 168 425 0 169 -53 302 -165 417 l-71 71 96 17 c52 8 129 27
170 40 41 13 108 31 149 39 41 9 106 32 145 51 38 20 111 52 161 71 143 55
290 133 348 184 41 37 71 54 133 73 43 14 82 26 85 26 3 1 53 -43 110 -97z"/>
</g>
</svg>
